# This file uses centimeters as units for non-parametric coordinates.

mtllib texture.mtl
g default
v 0.000015 39.170853 39.170837
v -0.000015 -39.170853 39.170837
v -0.000015 -39.170853 -39.170837
v 0.000015 39.170853 -39.170837
vt 0.000000 1.000000
vt 0.000000 0.000000
vt 1.000000 0.000000
vt 1.000000 1.000000
vn 1.000000 -0.000001 0.000000
vn 1.000000 -0.000001 0.000000
vn 1.000000 -0.000001 0.000000
vn 1.000000 -0.000001 0.000000
s off
g polySurface13 group62
usemtl blinn31SG
f 1/1/1 2/2/2 3/3/3 4/4/4
