# This file uses centimeters as units for non-parametric coordinates.

mtllib texturetest.mtl
g default
v -329.999969 -15.000000 211.903999
v 329.999969 -15.000000 211.903999
v -329.999969 0.000000 211.903999
v 329.999969 0.000000 211.903999
v -329.999969 -15.000000 -214.086113
v 329.999969 -15.000000 -214.086113
v 329.999969 -3.590342 211.903999
v -329.999969 -3.590342 211.903999
v 329.999969 -3.590342 214.086143
v -329.999969 -3.590342 214.086143
v 329.999969 0.000000 214.086143
v -329.999969 0.000000 214.086143
v 329.999969 0.000002 191.066871
v -329.999969 0.000002 191.066871
v -329.999969 -15.000000 191.066856
v 329.999969 -15.000000 191.066856
v 329.999969 15.000000 191.066871
v -329.999969 15.000000 191.066871
v 329.999969 15.000000 -214.086113
v -329.999969 15.000000 -214.086113
v 329.999969 10.741972 191.066871
v -329.999969 10.741972 191.066871
v 329.999969 10.741972 194.370155
v -329.999969 10.741972 194.370155
v 329.999969 15.000000 194.370155
v -329.999969 15.000000 194.370155
vt 0.920593 0.390438
vt 0.910189 0.390438
vt 0.910189 0.371437
vt 0.923867 0.371437
vt 0.923867 0.390438
vt 0.933662 0.371437
vt 0.910189 0.001992
vt 0.937545 0.001992
vt 0.937545 0.371437
vt 0.923867 0.392427
vt 0.920593 0.392427
vt 0.937545 0.374449
vt 0.933662 0.374449
vt 0.347783 0.265599
vt 0.339982 0.265599
vt 0.339982 0.254761
vt 0.345916 0.254761
vt 0.347783 0.254761
vt 0.339982 0.476331
vt 0.353371 0.265599
vt 0.355585 0.265599
vt 0.355585 0.476331
vt 0.345916 0.253626
vt 0.347783 0.253626
vt 0.353371 0.263881
vt 0.355585 0.263881
vt 0.362864 0.477483
vt 0.362864 0.253751
vt 0.390675 0.253751
vt 0.390675 0.477483
vt 0.356385 0.477483
vt 0.356385 0.253751
vt 0.966036 0.989930
vt 0.966036 0.388099
vt 0.979915 0.388099
vt 0.979915 0.989930
vt 0.696193 0.989930
vt 0.696193 0.388099
vt 0.991731 0.989930
vt 0.991731 0.388099
vt 0.993185 0.388099
vt 0.993185 0.989930
vt 0.423589 0.477483
vt 0.423589 0.253751
vt 0.613220 0.253751
vt 0.613220 0.477483
vt 0.417664 0.477483
vt 0.417664 0.253751
vt 0.901016 0.603823
vt 0.901016 0.001992
vt 0.904028 0.001992
vt 0.904028 0.603823
vt 0.334625 0.477483
vt 0.334625 0.253751
vt 0.347842 0.253751
vt 0.347842 0.477483
vt 0.690765 0.388099
vt 0.690765 0.989930
vt 0.670784 0.989930
vt 0.670784 0.388099
vt 0.350024 0.477483
vt 0.350024 0.253751
vt 0.405043 0.253751
vt 0.405043 0.477483
vt 0.410332 0.477483
vt 0.410332 0.253751
vt 0.355585 0.265599
vt 0.937545 0.371437
vt 0.353371 0.265599
vt 0.933662 0.371437
vt 0.347783 0.265599
vt 0.923867 0.371437
vt 0.966036 0.388099
vt 0.910189 0.371437
vt 0.339982 0.265599
vt 0.966036 0.989930
vt 0.347783 0.254761
vt 0.923867 0.390438
vt 0.345916 0.254761
vt 0.920593 0.390438
vt 0.390675 0.253751
vt 0.390675 0.477483
vn 0.000000 0.000000 1.000000
vn 0.000000 0.000000 1.000000
vn 0.000000 0.000000 1.000000
vn 0.000000 0.000000 1.000000
vn 0.000000 1.000000 0.000000
vn 0.000000 1.000000 0.000000
vn 0.000000 1.000000 0.000000
vn 0.000000 1.000000 0.000000
vn 0.000000 0.000000 -1.000000
vn 0.000000 0.000000 -1.000000
vn 0.000000 0.000000 -1.000000
vn 0.000000 0.000000 -1.000000
vn 0.000000 -1.000000 0.000000
vn 0.000000 -1.000000 0.000000
vn 0.000000 -1.000000 0.000000
vn 0.000000 -1.000000 0.000000
vn 1.000000 0.000000 0.000000
vn 1.000000 0.000000 0.000000
vn 1.000000 0.000000 0.000000
vn 1.000000 0.000000 0.000000
vn 1.000000 0.000000 0.000000
vn -1.000000 0.000000 0.000000
vn -1.000000 0.000000 0.000000
vn -1.000000 0.000000 0.000000
vn -1.000000 0.000000 0.000000
vn -1.000000 0.000000 0.000000
vn 0.000000 0.000000 1.000000
vn 0.000000 0.000000 1.000000
vn 0.000000 0.000000 1.000000
vn 0.000000 0.000000 1.000000
vn 0.000000 -1.000000 0.000000
vn 0.000000 -1.000000 0.000000
vn 0.000000 -1.000000 0.000000
vn 0.000000 -1.000000 0.000000
vn 1.000000 0.000000 0.000000
vn 1.000000 0.000000 0.000000
vn 0.000000 1.000000 0.000000
vn 0.000000 1.000000 0.000000
vn -1.000000 0.000000 0.000000
vn -1.000000 0.000000 0.000000
vn 0.000000 1.000000 0.000000
vn 0.000000 1.000000 0.000000
vn 0.000000 1.000000 0.000000
vn 0.000000 1.000000 0.000000
vn -1.000000 0.000000 0.000000
vn -1.000000 0.000000 0.000000
vn -1.000000 0.000000 0.000000
vn -1.000000 0.000000 0.000000
vn 0.000000 -1.000000 0.000000
vn 0.000000 -1.000000 0.000000
vn 0.000000 0.000000 1.000000
vn 0.000000 0.000000 1.000000
vn 0.000000 0.000000 1.000000
vn 0.000000 0.000000 1.000000
vn 1.000000 0.000000 0.000000
vn 1.000000 0.000000 0.000000
vn 1.000000 0.000000 0.000000
vn 1.000000 0.000000 0.000000
vn 0.000000 0.000000 1.000000
vn 0.000000 0.000000 1.000000
vn 0.000000 0.000000 1.000000
vn 0.000000 0.000000 1.000000
vn 0.000000 -1.000000 0.000000
vn 0.000000 -1.000000 0.000000
vn 0.000000 -1.000000 0.000000
vn 0.000000 -1.000000 0.000000
vn 1.000000 0.000000 0.000000
vn 1.000000 0.000000 0.000000
vn 0.000000 1.000000 0.000000
vn 0.000000 1.000000 0.000000
vn -1.000000 0.000000 0.000000
vn -1.000000 0.000000 0.000000
s off
g pCube1 group62
usemtl blinn1SG
f 1/53/1 2/54/2 7/55/3 8/56/4
s 1
f 3/27/5 4/28/6 13/29/7 14/82/8
s off
f 6/57/9 5/58/10 20/59/11 19/60/12
s 2
f 15/76/13 16/73/14 2/35/15 1/36/16
s 3
f 7/80/17 2/2/18 16/74/19 13/72/20 4/5/21
s 4
f 14/14/22 15/75/23 1/16/24 8/17/25 3/77/26
s off
f 10/61/27 9/62/28 11/32/29 12/31/30
f 8/39/31 7/40/32 9/41/33 10/42/34
s 3
f 7/1/17 4/78/21 11/10/35 9/11/36
s 1
f 4/28/6 3/27/5 12/31/37 11/32/38
s 4
f 3/18/26 8/79/25 10/23/39 12/24/40
s 5
f 18/43/41 17/44/42 19/45/43 20/46/44
s 4
f 5/19/45 15/15/23 14/71/22 22/20/46 18/67/47 20/22/48
s 2
f 5/37/49 6/38/50 16/34/14 15/33/13
s off
f 14/30/51 13/81/52 21/63/53 22/64/54
s 3
f 21/70/55 13/4/20 16/3/19 6/7/56 19/8/57 17/9/58
s off
f 24/65/59 23/66/60 25/48/61 26/47/62
f 22/49/63 21/50/64 23/51/65 24/52/66
s 3
f 21/6/55 17/68/58 25/12/67 23/13/68
s 5
f 17/44/42 18/43/41 26/47/69 25/48/70
s 4
f 18/21/47 22/69/46 24/25/71 26/26/72
