# This file uses centimeters as units for non-parametric coordinates.

mtllib texturetest.mtl
g default
v 4.556644 -6.247399 -57.582160
v 4.556640 -6.247399 -86.750775
v 4.556644 6.247399 -57.582160
v 4.556640 6.247399 -86.750775
v 2.659911 6.247399 -57.582160
v 2.659882 6.247399 -86.750775
v 2.659911 -6.247399 -57.582160
v 2.659882 -6.247399 -86.750775
vt 0.125994 0.169134
vt 0.874007 0.169134
vt 0.874007 0.401017
vt 0.125994 0.401017
vt 0.086105 0.922398
vt 0.086105 0.922398
vt 0.086106 0.540433
vt 0.086105 0.540433
vt 0.911806 0.540433
vt 0.911805 0.540433
vt 0.911805 0.922398
vt 0.911806 0.922398
vn 1.000000 0.000000 -0.000000
vn 1.000000 0.000000 -0.000000
vn 1.000000 0.000000 -0.000000
vn 1.000000 0.000000 -0.000000
vn 0.000000 1.000000 0.000000
vn 0.000000 1.000000 0.000000
vn 0.000000 1.000000 0.000000
vn 0.000000 1.000000 0.000000
vn -1.000000 0.000000 0.000001
vn -1.000000 0.000000 0.000001
vn -1.000000 0.000000 0.000001
vn -1.000000 0.000000 0.000001
vn 0.000000 -1.000000 0.000000
vn 0.000000 -1.000000 0.000000
vn 0.000000 -1.000000 0.000000
vn 0.000000 -1.000000 0.000000
vn 0.000000 0.000000 -1.000000
vn 0.000000 0.000000 -1.000000
vn 0.000000 0.000000 -1.000000
vn 0.000000 0.000000 -1.000000
vn -0.000000 0.000000 1.000000
vn -0.000000 0.000000 1.000000
vn -0.000000 0.000000 1.000000
vn -0.000000 0.000000 1.000000
s off
g _Door_Double:pCube27 group62
usemtl blinn42SG
f 1/1/1 2/2/2 4/3/3 3/4/4
f 3/5/5 4/12/6 6/11/7 5/6/8
f 5/6/9 6/11/10 8/10/11 7/7/12
f 7/7/13 8/10/14 2/9/15 1/8/16
f 2/9/17 8/10/18 6/11/19 4/12/20
f 7/7/21 1/8/22 3/5/23 5/6/24
