# This file uses centimeters as units for non-parametric coordinates.

mtllib texturetest.mtl
g default
v -8.579230 -0.795249 1.498676
v 8.573853 -0.795249 1.498676
v -6.327451 0.795249 1.498676
v 6.322875 0.795249 1.498676
v -13.310117 0.033117 -7.530721
v 13.310117 0.033117 -7.530721
v -14.416443 -0.795249 -7.530721
v 14.416443 -0.795249 -7.530721
v 3.800063 0.795249 -7.530721
v 3.800063 -0.795249 -7.530721
v 2.739501 -0.795249 7.524915
v 2.739501 0.024951 7.530721
v -3.180658 0.795249 -7.530721
v -3.180658 -0.795249 -7.530721
v -2.120095 -0.795249 7.524915
v -2.120095 0.024951 7.530721
v 13.310117 0.033117 -3.908028
v 3.800063 1.432779 -3.908028
v -3.180658 1.432779 -3.908028
v -13.310117 0.033117 -3.908028
v -14.416443 -0.795249 -4.383201
v -3.180658 -1.432779 -3.908028
v 3.800063 -1.432779 -3.908028
v 14.416443 -0.795249 -4.383201
v -10.611231 0.795249 -1.592103
v -12.985885 -0.795249 -1.592103
v -3.180658 -1.432779 0.989196
v 3.800063 -1.432779 0.989196
v 12.983825 -0.795249 -1.592103
v 10.608943 0.795249 -1.592103
v 3.800063 1.432779 0.989196
v -3.180658 1.432779 0.989196
v 8.225137 0.795249 -7.530721
v 8.225137 -0.795249 -7.530721
v 8.225137 -1.432779 -3.908028
v 7.389387 -1.342159 -0.032825
v 5.565494 -0.795249 4.400071
v 4.106219 0.795249 4.400071
v 7.389387 0.795249 -0.019670
v 8.225137 1.432779 -3.908028
v -7.866697 0.795249 -7.530721
v -7.866697 -0.795249 -7.530721
v -7.866697 -1.432779 -3.908028
v -7.028429 -1.342159 -0.036922
v -5.198129 -0.795249 4.390504
v -3.806699 0.795249 4.390504
v -7.028429 0.795249 -0.023768
v -7.866697 1.432779 -3.908028
vt 0.359729 0.703772
vt 0.419908 0.631216
vt 0.342993 0.741970
vt 0.257468 0.781320
vt 0.197792 0.262294
vt 0.342120 0.223468
vt 0.386463 0.114189
vt 0.304552 0.185779
vt 0.601498 0.716555
vt 0.576181 0.552427
vt 0.608809 0.630976
vt 0.687186 0.741868
vt 0.434851 0.716555
vt 0.578765 0.036595
vt 0.719919 0.521564
vt 0.604457 0.198392
vt 0.719919 0.499097
vt 0.460169 0.552427
vt 0.691416 0.223367
vt 0.842061 0.499097
vt 0.647228 0.113953
vt 0.842061 0.521564
vt 0.601498 0.930321
vt 0.601498 0.839427
vt 0.707137 0.839427
vt 0.707137 0.930321
vt 0.434851 0.930321
vt 0.434851 0.839427
vt 0.193032 0.839427
vt 0.461033 0.036595
vt 0.435340 0.198392
vt 0.163136 0.409309
vt 0.321813 0.409309
vt 0.322982 0.839427
vt 0.322982 0.930321
vt 0.321813 0.319627
vt 0.163136 0.331390
vt 0.604457 0.319627
vt 0.435340 0.319627
vt 0.193032 0.930321
vt 0.166623 0.930321
vt 0.166623 0.851350
vt 0.828529 0.839427
vt 0.435340 0.409309
vt 0.604457 0.409309
vt 0.711662 0.319627
vt 0.711662 0.409309
vt 0.854941 0.851350
vt 0.854941 0.930321
vt 0.828529 0.930321
vt 0.661725 0.703772
vt 0.861657 0.331390
vt 0.861657 0.409309
vt 0.826948 0.262294
vt 0.720111 0.185779
vt 0.764044 0.781320
vn 0.000000 1.000000 0.000000
vn -0.099522 0.981485 0.163655
vn -0.101431 0.990751 0.090137
vn -0.160448 0.984388 0.072370
vn -0.113372 -0.990086 0.082922
vn -0.073638 -0.994681 0.072026
vn -0.105693 -0.983559 0.146430
vn -0.149368 -0.969476 0.194437
vn 0.017979 -0.994458 0.103589
vn 0.016471 -0.998201 0.057653
vn 0.079318 -0.994139 0.073466
vn 0.116430 -0.981615 0.151251
vn 0.020059 0.993832 0.109072
vn 0.001133 0.977691 0.210045
vn 0.117536 0.978051 0.172054
vn 0.118954 0.987919 0.099323
vn -0.017917 -0.994441 0.103756
vn -0.016181 -0.998191 0.057900
vn 0.000000 -0.007079 0.999975
vn 0.000000 -0.007079 0.999975
vn 0.000000 -0.007079 0.999975
vn 0.000000 -0.007079 0.999975
vn -0.019791 0.993864 0.108825
vn -0.001415 0.977747 0.209781
vn 0.000000 0.984866 -0.173319
vn 0.016768 0.997875 -0.062957
vn 0.080019 0.996050 -0.038479
vn 0.137000 0.983708 -0.116405
vn 0.000000 0.984866 -0.173319
vn -0.016402 0.997913 -0.062457
vn -0.191728 0.978812 -0.071890
vn -0.075328 0.996400 -0.038900
vn -0.128383 0.984866 -0.116429
vn -0.194045 0.977217 -0.085986
vn -0.599362 0.800478 0.000000
vn -0.599362 0.800478 0.000000
vn -0.599362 0.800478 0.000000
vn -0.599362 0.800478 0.000000
vn -0.045008 -0.994587 -0.093657
vn -0.025408 -0.991380 -0.128528
vn -0.040359 -0.998175 -0.044918
vn -0.069567 -0.997030 -0.033027
vn 0.002382 -0.997111 -0.075920
vn -0.002330 -0.997114 -0.075885
vn 0.000000 -0.984866 -0.173319
vn 0.000000 -0.984866 -0.173319
vn 0.042790 -0.998099 -0.044361
vn 0.026890 -0.991345 -0.128503
vn 0.599362 0.800478 0.000000
vn 0.599362 0.800478 0.000000
vn 0.599362 0.800478 0.000000
vn 0.599362 0.800478 0.000000
vn 0.073856 -0.996751 -0.032147
vn 0.047607 -0.994467 -0.093646
vn 0.122924 -0.988586 0.087100
vn 0.170852 -0.962326 0.211516
vn 0.000000 1.000000 0.000000
vn 0.178279 0.980537 0.082245
vn 0.205136 0.976136 -0.071251
vn 0.207155 0.974543 -0.085751
s 1
g pCube21 group62
usemtl blinn58SG
f 3/1/1 46/2/2 47/3/3 25/4/4
s 2
f 26/5/5 44/6/6 45/7/7 1/8/8
f 11/14/9 28/16/10 36/19/11 37/21/12
s 1
f 31/9/13 12/10/14 38/11/15 39/12/16
s 2
f 15/30/17 27/31/18 28/16/10 11/14/9
s off
f 16/15/19 15/17/20 11/20/21 12/22/22
s 1
f 32/13/23 16/18/24 12/10/14 31/9/13
f 9/23/25 18/24/26 40/25/27 33/26/28
f 13/27/29 19/28/30 18/24/26 9/23/25
f 20/29/31 48/34/32 41/35/33 5/40/34
s off
f 7/41/35 21/42/36 20/29/37 5/40/38
s 2
f 7/32/39 42/33/40 43/36/41 21/37/42
f 23/38/43 22/39/44 14/44/45 10/45/46
f 35/46/47 23/38/43 10/45/46 34/47/48
s off
f 17/43/49 24/48/50 8/49/51 6/50/52
s 2
f 21/37/42 43/36/41 44/6/6 26/5/5
f 28/16/10 27/31/18 22/39/44 23/38/43
f 36/19/11 28/16/10 23/38/43 35/46/47
s 1
f 18/24/26 31/9/13 39/12/16 40/25/27
f 19/28/30 32/13/23 31/9/13 18/24/26
f 25/4/4 47/3/3 48/34/32 20/29/31
s 2
f 24/52/53 35/46/47 34/47/48 8/53/54
f 29/54/55 36/19/11 35/46/47 24/52/53
f 37/21/12 36/19/11 29/54/55 2/55/56
s 1
f 39/12/16 38/11/15 4/51/57 30/56/58
f 40/25/27 39/12/16 30/56/58 17/43/59
f 33/26/28 40/25/27 17/43/59 6/50/60
s 2
f 43/36/41 42/33/40 14/44/45 22/39/44
f 44/6/6 43/36/41 22/39/44 27/31/18
f 45/7/7 44/6/6 27/31/18 15/30/17
s 1
f 47/3/3 46/2/2 16/18/24 32/13/23
f 48/34/32 47/3/3 32/13/23 19/28/30
f 41/35/33 48/34/32 19/28/30 13/27/29
