# This file uses centimeters as units for non-parametric coordinates.

mtllib texture.mtl
g default
v -1.533409 5.699799 12.945512
v 1.537323 -5.697449 12.945519
v 1.517654 -5.699799 -12.945519
v -1.537323 5.699341 -12.945519
vt 0.001793 0.721778
vt 0.001793 0.266284
vt 0.998207 0.266190
vt 0.998207 0.721759
vn 0.965741 0.259508 -0.000454
vn 0.965741 0.259508 -0.000454
vn 0.965741 0.259508 -0.000454
vn 0.965741 0.259508 -0.000454
s off
g polySurface12 group62
usemtl blinn49SG
f 1/1/1 2/2/2 3/3/3 4/4/4
